<?xml version="1.0" encoding="UTF-8" standalone="no"?>
<svg width="136px" height="30px" viewBox="0 0 136 30" version="1.1" xmlns="http://www.w3.org/2000/svg" xmlns:xlink="http://www.w3.org/1999/xlink">
    <!-- Generator: Sketch 3.6.1 (26313) - http://www.bohemiancoding.com/sketch -->
    <title>logo</title>
    <desc>Created with Sketch.</desc>
    <defs></defs>
    <g id="Page-1" stroke="none" stroke-width="1" fill="none" fill-rule="evenodd">
        <g id="iPhone-6" transform="translate(-10.000000, -9.000000)" fill="#FFFFFF">
            <g id="logo" transform="translate(10.000000, 9.000000)">
                <g id="Icons-08">
                    <g id="Page-1">
                        <g id="Icons-08">
                            <g id="OH_x5F_logo">
                                <path d="M12.9635678,0.276988636 L12.9635678,7.18039773 L11.4258794,7.18039773 L11.4258794,0.46875 C12.0025126,0.46875 12.3869347,0.276988636 12.9635678,0.276988636 L12.9635678,0.276988636 L12.9635678,0.276988636 L12.9635678,0.276988636 Z" id="Shape"></path>
                                <path d="M10.080402,0.852272727 L10.080402,7.18039773 L8.54271357,7.18039773 L8.54271357,1.42755682 C9.11934673,1.23579545 9.50376884,1.04403409 10.080402,0.852272727 L10.080402,0.852272727 L10.080402,0.852272727 L10.080402,0.852272727 Z" id="Shape"></path>
                                <path d="M3.16080402,5.83806818 L7.19723618,5.83806818 L7.19723618,7.18039773 L2.19974874,7.18039773 C2.58417085,6.796875 2.96859296,6.22159091 3.16080402,5.83806818 L3.16080402,5.83806818 L3.16080402,5.83806818 L3.16080402,5.83806818 Z" id="Shape"></path>
                                <path d="M1.43090452,8.71448864 L12.7713568,8.71448864 L12.7713568,10.0568182 L0.854271357,10.0568182 C1.04648241,9.67329545 1.23869347,9.09801136 1.43090452,8.71448864 L1.43090452,8.71448864 L1.43090452,8.71448864 L1.43090452,8.71448864 Z" id="Shape"></path>
                                <path d="M0.469849246,11.3991477 L12.9635678,11.3991477 L12.9635678,12.9332386 L0.277638191,12.9332386 C0.277638191,12.3579545 0.277638191,11.9744318 0.469849246,11.3991477 L0.469849246,11.3991477 L0.469849246,11.3991477 L0.469849246,11.3991477 Z" id="Shape"></path>
                                <path d="M7.19723618,12.1661932 L8.54271357,12.1661932 L8.54271357,15.8096591 L7.19723618,15.8096591 L7.19723618,12.1661932 L7.19723618,12.1661932 L7.19723618,12.1661932 Z" id="Shape"></path>
                                <path d="M4.31407035,12.1661932 L5.85175879,12.1661932 L5.85175879,15.8096591 L4.31407035,15.8096591 L4.31407035,12.1661932 L4.31407035,12.1661932 L4.31407035,12.1661932 Z" id="Shape"></path>
                                <path d="M22.7663317,11.3991477 L29.6859296,11.3991477 C29.8781407,11.9744318 29.8781407,12.3579545 29.8781407,12.9332386 L22.7663317,12.9332386 L22.7663317,11.3991477 L22.7663317,11.3991477 L22.7663317,11.3991477 L22.7663317,11.3991477 Z" id="Shape"></path>
                                <path d="M22.7663317,8.71448864 L28.7248744,8.71448864 C28.9170854,9.28977273 29.1092965,9.67329545 29.3015075,10.2485795 L22.7663317,10.2485795 L22.7663317,8.71448864 L22.7663317,8.71448864 L22.7663317,8.71448864 L22.7663317,8.71448864 Z" id="Shape"></path>
                                <path d="M24.111809,3.15340909 L24.111809,7.18039773 L22.5741206,7.18039773 L22.5741206,2.00284091 C23.1507538,2.578125 23.7273869,2.76988636 24.111809,3.15340909 L24.111809,3.15340909 L24.111809,3.15340909 L24.111809,3.15340909 Z" id="Shape"></path>
                                <path d="M21.2286432,1.42755682 L21.2286432,12.9332386 L19.8831658,12.9332386 L19.8831658,0.852272727 C20.459799,1.04403409 20.8442211,1.23579545 21.2286432,1.42755682 L21.2286432,1.42755682 L21.2286432,1.42755682 L21.2286432,1.42755682 Z" id="Shape"></path>
                                <path d="M18.5376884,0.46875 L18.5376884,12.9332386 L17.1922111,12.9332386 L17.1922111,0.276988636 C17.5766332,0.276988636 17.9610553,0.46875 18.5376884,0.46875 L18.5376884,0.46875 L18.5376884,0.46875 L18.5376884,0.46875 Z" id="Shape"></path>
                                <path d="M14.1168342,7.18039773 L17.7688442,7.18039773 L17.7688442,8.71448864 L14.1168342,8.71448864 L14.1168342,7.18039773 L14.1168342,7.18039773 L14.1168342,7.18039773 Z" id="Shape"></path>
                                <path d="M14.1168342,4.49573864 L17.7688442,4.49573864 L17.7688442,5.83806818 L14.1168342,5.83806818 L14.1168342,4.49573864 L14.1168342,4.49573864 L14.1168342,4.49573864 Z" id="Shape"></path>
                                <path d="M17.1922111,22.7130682 L18.5376884,22.7130682 L18.5376884,29.4247159 C17.9610553,29.6164773 17.5766332,29.6164773 17,29.6164773 L17,22.7130682 L17.1922111,22.7130682 L17.1922111,22.7130682 L17.1922111,22.7130682 Z" id="Shape"></path>
                                <path d="M20.0753769,22.7130682 L21.4208543,22.7130682 L21.4208543,28.4659091 C21.0364322,28.6576705 20.459799,28.8494318 20.0753769,29.0411932 L20.0753769,22.7130682 L20.0753769,22.7130682 L20.0753769,22.7130682 L20.0753769,22.7130682 Z" id="Shape"></path>
                                <path d="M22.7663317,22.7130682 L27.7638191,22.7130682 C27.379397,23.2883523 27.1871859,23.671875 26.8027638,24.2471591 L22.7663317,24.2471591 L22.7663317,22.7130682 L22.7663317,22.7130682 L22.7663317,22.7130682 L22.7663317,22.7130682 Z" id="Shape"></path>
                                <path d="M17.1922111,20.0284091 L29.3015075,20.0284091 C29.1092965,20.6036932 28.9170854,20.9872159 28.7248744,21.5625 L17.3844221,21.5625 L17.3844221,20.0284091 L17.1922111,20.0284091 L17.1922111,20.0284091 L17.1922111,20.0284091 Z" id="Shape"></path>
                                <path d="M17.1922111,17.1519886 L29.8781407,17.1519886 C29.8781407,17.7272727 29.6859296,18.1107955 29.6859296,18.6860795 L17.1922111,18.6860795 L17.1922111,17.1519886 L17.1922111,17.1519886 L17.1922111,17.1519886 L17.1922111,17.1519886 Z" id="Shape"></path>
                                <path d="M21.4208543,14.2755682 L22.9585427,14.2755682 L22.9585427,17.9190341 L21.4208543,17.9190341 L21.4208543,14.2755682 L21.4208543,14.2755682 L21.4208543,14.2755682 Z" id="Shape"></path>
                                <path d="M24.3040201,14.2755682 L25.6494975,14.2755682 L25.6494975,17.9190341 L24.3040201,17.9190341 L24.3040201,14.2755682 L24.3040201,14.2755682 L24.3040201,14.2755682 Z" id="Shape"></path>
                                <path d="M0.277638191,17.34375 L7.19723618,17.34375 L7.19723618,18.6860795 L0.469849246,18.6860795 C0.469849246,18.3025568 0.277638191,17.7272727 0.277638191,17.34375 L0.277638191,17.34375 L0.277638191,17.34375 L0.277638191,17.34375 Z" id="Shape"></path>
                                <path d="M0.854271357,20.0284091 L7.00502513,20.0284091 L7.00502513,21.3707386 L1.62311558,21.3707386 C1.23869347,20.9872159 1.04648241,20.6036932 0.854271357,20.0284091 L0.854271357,20.0284091 L0.854271357,20.0284091 L0.854271357,20.0284091 Z" id="Shape"></path>
                                <path d="M5.65954774,22.9048295 L7.19723618,22.9048295 L7.19723618,27.6988636 C6.62060302,27.3153409 6.2361809,27.1235795 5.65954774,26.7400568 L5.65954774,22.9048295 L5.65954774,22.9048295 L5.65954774,22.9048295 L5.65954774,22.9048295 Z" id="Shape"></path>
                                <path d="M8.54271357,17.34375 L9.88819095,17.34375 L9.88819095,29.0411932 C9.31155779,28.8494318 8.92713568,28.6576705 8.54271357,28.4659091 L8.54271357,17.34375 L8.54271357,17.34375 L8.54271357,17.34375 L8.54271357,17.34375 Z" id="Shape"></path>
                                <path d="M11.4258794,17.34375 L12.7713568,17.34375 L12.7713568,29.8082386 C12.1947236,29.8082386 11.8103015,29.6164773 11.4258794,29.6164773 L11.4258794,17.34375 L11.4258794,17.34375 L11.4258794,17.34375 L11.4258794,17.34375 Z" id="Shape"></path>
                                <path d="M12.0025126,21.5625 L15.6545226,21.5625 L15.6545226,22.9048295 L12.0025126,22.9048295 L12.0025126,21.5625 L12.0025126,21.5625 L12.0025126,21.5625 Z" id="Shape"></path>
                                <path d="M12.0025126,24.2471591 L15.6545226,24.2471591 L15.6545226,25.78125 L12.0025126,25.78125 L12.0025126,24.2471591 L12.0025126,24.2471591 L12.0025126,24.2471591 Z" id="Shape"></path>
                                <path d="M47.9459799,16.1931818 C47.9459799,11.7826705 45.6394472,9.86505682 42.1796482,9.86505682 C38.9120603,9.86505682 36.0288945,12.3579545 36.0288945,16.5767045 C36.0288945,20.4119318 37.951005,22.9048295 41.7952261,22.9048295 C45.2550251,22.9048295 47.9459799,20.4119318 47.9459799,16.1931818 L47.9459799,16.1931818 L47.9459799,16.1931818 L47.9459799,16.1931818 L47.9459799,16.1931818 Z M45.2550251,16.3849432 C45.2550251,19.453125 43.5251256,20.7954545 41.7952261,20.7954545 C39.4886935,20.7954545 38.5276382,19.0696023 38.5276382,16.3849432 C38.5276382,13.5085227 40.2575377,12.1661932 41.7952261,12.1661932 C44.1017588,11.9744318 45.2550251,13.5085227 45.2550251,16.3849432 L45.2550251,16.3849432 L45.2550251,16.3849432 L45.2550251,16.3849432 L45.2550251,16.3849432 Z" id="Shape"></path>
                                <path d="M60.2474874,22.7130682 L60.2474874,21.1789773 C59.6708543,21.1789773 59.2864322,20.9872159 58.709799,20.9872159 L58.709799,16.1931818 C58.709799,14.4673295 57.9409548,13.3167614 55.8266332,13.3167614 C54.4811558,13.3167614 53.3278894,13.8920455 52.7512563,15.0426136 L52.7512563,15.0426136 C52.9434673,14.4673295 52.9434673,13.7002841 52.9434673,13.125 L52.9434673,9.09801136 C51.5979899,9.09801136 50.0603015,9.09801136 48.9070352,9.28977273 L48.9070352,10.8238636 C49.4836683,10.8238636 50.0603015,11.015625 50.4447236,11.015625 L50.4447236,21.1789773 C49.8680905,21.1789773 49.2914573,21.3707386 48.9070352,21.3707386 L48.9070352,22.9048295 L54.2889447,22.9048295 L54.2889447,21.3707386 C53.9045226,21.1789773 53.3278894,21.1789773 52.9434673,21.1789773 L52.9434673,18.4943182 C52.9434673,16.7684659 53.9045226,15.4261364 55.0577889,15.4261364 C56.0188442,15.4261364 56.2110553,16.0014205 56.2110553,16.9602273 L56.2110553,22.9048295 L60.2474874,22.9048295 L60.2474874,22.7130682 L60.2474874,22.7130682 L60.2474874,22.7130682 Z" id="Shape"></path>
                                <path d="M65.2449749,10.6321023 C65.2449749,9.86505682 64.6683417,9.28977273 63.7072864,9.28977273 C62.9384422,9.28977273 62.169598,9.86505682 62.169598,10.6321023 C62.169598,11.3991477 62.7462312,12.1661932 63.7072864,12.1661932 C64.6683417,12.1661932 65.2449749,11.5909091 65.2449749,10.6321023 L65.2449749,10.6321023 L65.2449749,10.6321023 L65.2449749,10.6321023 L65.2449749,10.6321023 Z M66.5904523,22.7130682 L66.5904523,21.1789773 C66.2060302,21.1789773 65.629397,20.9872159 65.0527638,20.9872159 L65.0527638,13.5085227 C63.7072864,13.5085227 62.169598,13.5085227 61.0163317,13.7002841 L61.0163317,15.234375 C61.5929648,15.234375 62.169598,15.4261364 62.7462312,15.4261364 L62.7462312,21.1789773 C62.169598,21.1789773 61.5929648,21.3707386 61.0163317,21.3707386 L61.0163317,22.9048295 L66.5904523,22.9048295 L66.5904523,22.7130682 L66.5904523,22.7130682 L66.5904523,22.7130682 Z" id="Shape"></path>
                                <path d="M76.3932161,17.9190341 C76.3932161,14.6590909 74.6633166,13.3167614 71.9723618,13.3167614 C69.089196,13.3167614 67.1670854,15.4261364 67.1670854,18.3025568 C67.1670854,21.5625 68.8969849,22.9048295 71.5879397,22.9048295 C74.2788945,22.9048295 76.3932161,20.7954545 76.3932161,17.9190341 L76.3932161,17.9190341 L76.3932161,17.9190341 L76.3932161,17.9190341 L76.3932161,17.9190341 Z M73.8944724,17.9190341 C73.8944724,19.8366477 72.9334171,20.7954545 71.7801508,20.7954545 C70.4346734,20.7954545 69.6658291,19.8366477 69.6658291,17.9190341 C69.6658291,16.0014205 70.6268844,15.234375 71.7801508,15.234375 C73.1256281,15.234375 73.8944724,16.1931818 73.8944724,17.9190341 L73.8944724,17.9190341 L73.8944724,17.9190341 L73.8944724,17.9190341 L73.8944724,17.9190341 Z" id="Shape"></path>
                                <path d="M90.8090452,22.7130682 L90.8090452,21.1789773 C90.2324121,21.1789773 89.8479899,20.9872159 89.2713568,20.9872159 L89.2713568,11.7826705 C89.8479899,11.7826705 90.4246231,11.5909091 90.8090452,11.5909091 L90.8090452,10.0568182 L85.4271357,10.0568182 L85.4271357,11.5909091 C85.8115578,11.7826705 86.388191,11.7826705 86.7726131,11.7826705 L86.7726131,15.0426136 L81.3907035,15.0426136 L81.3907035,11.7826705 C81.7751256,11.7826705 82.3517588,11.7826705 82.7361809,11.5909091 L82.7361809,10.0568182 L77.3542714,10.0568182 L77.3542714,11.5909091 C77.7386935,11.7826705 78.3153266,11.7826705 78.8919598,11.7826705 L78.8919598,20.9872159 C78.3153266,20.9872159 77.7386935,21.1789773 77.3542714,21.1789773 L77.3542714,22.7130682 L82.7361809,22.7130682 L82.7361809,21.1789773 C82.3517588,20.9872159 81.7751256,20.9872159 81.3907035,20.9872159 L81.3907035,17.34375 L86.7726131,17.34375 L86.7726131,20.9872159 C86.388191,20.9872159 85.8115578,21.1789773 85.4271357,21.1789773 L85.4271357,22.7130682 L90.8090452,22.7130682 L90.8090452,22.7130682 L90.8090452,22.7130682 L90.8090452,22.7130682 Z" id="Shape"></path>
                                <path d="M100.035176,17.34375 C100.035176,15.0426136 98.8819095,13.3167614 96.1909548,13.3167614 C93.3077889,13.3167614 91.7701005,15.4261364 91.7701005,18.3025568 C91.7701005,21.5625 93.5,23.0965909 96.3831658,23.0965909 C97.5364322,23.0965909 98.6896985,22.9048295 99.6507538,22.5213068 L99.4585427,20.6036932 C98.6896985,20.9872159 97.7286432,21.1789773 96.7675879,21.1789773 C95.0376884,21.1789773 94.2688442,20.4119318 94.2688442,18.6860795 L100.035176,18.6860795 L100.035176,17.34375 L100.035176,17.34375 L100.035176,17.34375 L100.035176,17.34375 L100.035176,17.34375 Z M97.7286432,16.7684659 L94.2688442,16.7684659 C94.4610553,15.6178977 95.0376884,14.8508523 95.9987437,14.8508523 C97.1520101,15.0426136 97.7286432,15.6178977 97.7286432,16.7684659 L97.7286432,16.7684659 L97.7286432,16.7684659 L97.7286432,16.7684659 L97.7286432,16.7684659 Z" id="Shape"></path>
                                <path d="M110.606784,22.5213068 L110.606784,20.9872159 C110.030151,20.9872159 109.453518,20.7954545 109.069095,20.7954545 L109.069095,16.3849432 C109.069095,14.2755682 108.300251,13.125 105.224874,13.125 C104.071608,13.125 102.918342,13.3167614 101.957286,13.7002841 L101.957286,16.3849432 L103.494975,16.3849432 C103.687186,16.0014205 103.687186,15.6178977 103.687186,15.234375 C104.071608,15.0426136 104.45603,15.0426136 105.032663,15.0426136 C106.378141,15.0426136 106.762563,15.6178977 106.762563,16.5767045 L106.762563,17.1519886 C103.494975,17.1519886 101.380653,18.3025568 101.380653,20.6036932 C101.380653,22.1377841 102.341709,23.0965909 104.071608,23.0965909 C105.417085,23.0965909 106.570352,22.3295455 106.954774,21.3707386 L106.954774,21.3707386 L106.954774,22.7130682 C108.10804,22.7130682 109.453518,22.7130682 110.606784,22.5213068 L110.606784,22.5213068 L110.606784,22.5213068 L110.606784,22.5213068 L110.606784,22.5213068 Z M106.762563,18.8778409 C106.762563,20.0284091 105.993719,21.1789773 104.648241,21.1789773 C104.071608,21.1789773 103.494975,20.7954545 103.494975,20.2201705 C103.687186,19.2613636 104.45603,18.6860795 106.762563,18.8778409 L106.762563,18.8778409 L106.762563,18.8778409 L106.762563,18.8778409 L106.762563,18.8778409 Z" id="Shape"></path>
                                <path d="M115.41206,20.9872159 L115.41206,9.09801136 C114.066583,9.09801136 112.528894,9.09801136 111.375628,9.28977273 L111.375628,10.8238636 C111.952261,10.8238636 112.528894,11.015625 113.105528,11.015625 L113.105528,21.1789773 C112.528894,21.1789773 111.952261,21.3707386 111.375628,21.3707386 L111.375628,22.9048295 L116.949749,22.9048295 L116.949749,21.3707386 C116.373116,21.1789773 115.988693,20.9872159 115.41206,20.9872159 L115.41206,20.9872159 L115.41206,20.9872159 L115.41206,20.9872159 L115.41206,20.9872159 Z" id="Shape"></path>
                                <path d="M123.100503,22.7130682 L123.100503,20.7954545 C122.71608,20.9872159 122.331658,20.9872159 121.947236,20.9872159 C121.178392,20.9872159 120.79397,20.6036932 120.79397,19.453125 L120.79397,15.4261364 L123.100503,15.4261364 L123.100503,13.5085227 L120.79397,13.5085227 L120.79397,10.0568182 L118.487437,10.4403409 L118.487437,13.3167614 L116.949749,13.3167614 L116.949749,15.234375 L118.487437,15.234375 L118.487437,20.0284091 C118.487437,22.1377841 119.06407,22.9048295 121.178392,22.9048295 C121.947236,22.9048295 122.523869,22.7130682 123.100503,22.7130682 L123.100503,22.7130682 L123.100503,22.7130682 L123.100503,22.7130682 L123.100503,22.7130682 Z" id="Shape"></path>
                                <path d="M135.40201,22.7130682 L135.40201,21.1789773 C134.825377,21.1789773 134.440955,20.9872159 133.864322,20.9872159 L133.864322,16.1931818 C133.864322,14.4673295 133.095477,13.3167614 130.981156,13.3167614 C129.635678,13.3167614 128.482412,13.8920455 127.905779,15.0426136 L127.905779,15.0426136 C128.09799,14.4673295 128.09799,13.7002841 128.09799,13.125 L128.09799,9.09801136 C126.752513,9.09801136 125.214824,9.09801136 124.061558,9.28977273 L124.061558,10.8238636 C124.638191,10.8238636 125.214824,11.015625 125.599246,11.015625 L125.599246,21.1789773 C125.022613,21.1789773 124.44598,21.3707386 124.061558,21.3707386 L124.061558,22.9048295 L129.443467,22.9048295 L129.443467,21.3707386 C129.059045,21.1789773 128.482412,21.1789773 128.09799,21.1789773 L128.09799,18.4943182 C128.09799,16.7684659 129.059045,15.4261364 130.212312,15.4261364 C131.173367,15.4261364 131.365578,16.0014205 131.365578,16.9602273 L131.365578,22.9048295 L135.40201,22.9048295 L135.40201,22.7130682 L135.40201,22.7130682 L135.40201,22.7130682 Z" id="Shape"></path>
                            </g>
                        </g>
                    </g>
                </g>
            </g>
        </g>
    </g>
</svg>